<?xml version="1.0" ?><svg data-name="Layer 1" id="Layer_1" viewBox="0 0 64 64" xmlns="http://www.w3.org/2000/svg"><defs><style>.cls-1{fill:#677a91;}.cls-2{fill:#ecf1f6;}.cls-3{fill:#6e9eff;}.cls-4{fill:#fc445d;}.cls-5{opacity:0.15;}</style></defs><title/><path class="cls-1" d="M32,4a28,28,0,1,0,19.8,8.2A27.91,27.91,0,0,0,32,4ZM48.44,48.44a23.25,23.25,0,1,1,0-32.88A23.18,23.18,0,0,1,48.44,48.44Z"/><path class="cls-2" d="M32,8.75a23.25,23.25,0,1,0,16.44,6.81A23.18,23.18,0,0,0,32,8.75Zm3.42,26.67-3.42,2L18.68,45.32l9.9-16.73,3.42-2,13.31-7.88Z"/><polygon class="cls-3" points="28.58 28.58 18.68 45.32 32 37.44 35.42 35.42 32 32 28.58 28.58"/><polygon class="cls-4" points="28.58 28.58 32 32 35.42 35.42 45.32 18.68 32 26.56 28.58 28.58"/><g class="cls-5"><path d="M48.44,48.44,51.8,51.8a28,28,0,0,0,0-39.6l-3.36,3.36A23.25,23.25,0,0,1,48.44,48.44Z"/></g><g class="cls-5"><path d="M32,55.25V60a27.91,27.91,0,0,0,19.8-8.2l-3.36-3.36A23.18,23.18,0,0,1,32,55.25Z"/></g><g class="cls-5"><path d="M48.44,15.56,51.8,12.2A27.91,27.91,0,0,0,32,4V8.75A23.18,23.18,0,0,1,48.44,15.56Z"/></g><g class="cls-5"><path d="M45.32,18.68l-9.9,16.73-3.42,2V55.25a23.25,23.25,0,0,0,0-46.5V26.56Z"/></g><g class="cls-5"><polygon points="35.42 35.42 45.32 18.68 32 26.56 32 32 35.42 35.42"/></g><g class="cls-5"><polygon points="32 32 32 37.44 35.42 35.42 32 32"/></g></svg>